<svg width="16" height="16" fill="none" xmlns="http://www.w3.org/2000/svg">
    <path d="M2.825 13.175h3.532v-2.993h2.318V7.19h2.317V4.175h2.183v-1.35H9.642v2.992H7.325V8.81H5.007v3.015H2.825v1.35zm-.848 2.475a1.57 1.57 0 0 1-1.155-.473 1.57 1.57 0 0 1-.472-1.154V1.977c0-.455.157-.84.472-1.155A1.57 1.57 0 0 1 1.977.35h12.046c.455 0 .84.157 1.155.472.314.315.472.7.472 1.155v12.046c0 .454-.158.84-.473 1.154a1.57 1.57 0 0 1-1.154.473H1.977zm0-1.35h12.046c.07 0 .133-.03.19-.087a.265.265 0 0 0 .087-.19V1.977a.265.265 0 0 0-.087-.19.265.265 0 0 0-.19-.087H1.977a.265.265 0 0 0-.19.086.265.265 0 0 0-.087.19v12.047c0 .069.029.132.086.19a.265.265 0 0 0 .19.087z"
          fill="#667085"/>
</svg>