<svg width="18" height="16" fill="none" xmlns="http://www.w3.org/2000/svg">
    <path d="M9 11.056a2.667 2.667 0 1 0 0-5.333 2.667 2.667 0 0 0 0 5.333z" fill="#2F56FF"/>
    <path d="M6.5.057 4.975 1.724H2.334c-.917 0-1.667.75-1.667 1.667v10c0 .916.75 1.666 1.667 1.666h13.333c.917 0 1.667-.75 1.667-1.667v-10c0-.916-.75-1.666-1.667-1.666h-2.642L11.5.057h-5zm2.5 12.5a4.168 4.168 0 0 1-4.166-4.166C4.834 6.09 6.7 4.224 9 4.224c2.3 0 4.167 1.867 4.167 4.167S11.3 12.557 9 12.557z"
          fill="#2F56FF"/>
</svg>