<svg width="28" height="34" viewBox="0 0 28 34" fill="none" xmlns="http://www.w3.org/2000/svg">
<path d="M9.27775 18.954H12.0555V14.0929H15.9444V18.954H18.7222V11.1762L14 8.03733L9.27775 11.1762V18.954ZM14 33.954C9.52774 30.1484 6.18746 26.6137 3.97913 23.3498C1.77079 20.0859 0.666626 17.0651 0.666626 14.2873C0.666626 10.1207 2.0069 6.80122 4.68746 4.329C7.36801 1.85678 10.4722 0.620667 14 0.620667C17.5277 0.620667 20.6319 1.85678 23.3125 4.329C25.993 6.80122 27.3333 10.1207 27.3333 14.2873C27.3333 17.0651 26.2291 20.0859 24.0208 23.3498C21.8125 26.6137 18.4722 30.1484 14 33.954Z" fill="#2F56FF"/>
</svg>
