<svg width="19" height="18" fill="none" xmlns="http://www.w3.org/2000/svg">
    <path d="M7.748 1.231c.348.215.632.54.797.95l1.299 3.24a2.183 2.183 0 0 1 2.27-.352 2.181 2.181 0 0 1 3.123-.034A1.972 1.972 0 0 1 17.8 6.14c.607 1.525 1.019 3.095 1.164 4.565.478 4.827-3.88 7.908-7.972 6.132-1.134-.494-2.01-.847-2.62-1.06a6.2 6.2 0 0 0-.67-.203.861.861 0 0 0-.118-.02c.04.002.08-.005.118-.02a.632.632 0 0 1-.435.003.244.244 0 0 0-.173.004l-.923.375a1.082 1.082 0 0 1-1.416-.604 2.906 2.906 0 0 1 .663-3.156 2.87 2.87 0 0 1 .946-.612c.346-.141.721-.199 1.094-.17l.528.044L5.064 4.13c-1.6.9-2.44 2.784-2.44 4.953 0 .716-.587 1.296-1.312 1.296A1.305 1.305 0 0 1 0 9.085c0-3.982 2.239-7.3 5.924-7.983l.048-.021A1.947 1.947 0 0 1 7.109.977a8.01 8.01 0 0 1 .126-.004h.125c.251 0 .487.07.688.192.059.03-.071.038-.3.066zm3.754 14.416c3.204 1.391 6.562-.984 6.182-4.813-.132-1.34-.512-2.794-1.076-4.21a.686.686 0 0 0-.888-.388.734.734 0 0 0-.21.137.641.641 0 0 1-1.011-.185.902.902 0 0 0-1.626.025.64.64 0 0 1-1.01.21.898.898 0 0 0-1.3.104.909.909 0 0 0-.194.441c-.096.653-.986.76-1.233.148l-1.784-4.45a.688.688 0 0 0-1.275-.01.697.697 0 0 0-.004.531l3.495 8.717a.647.647 0 0 1-.647.888l-1.564-.126a1.134 1.134 0 0 0-.52.082 1.59 1.59 0 0 0-.952 1.888l.728-.297a1.52 1.52 0 0 1 .926-.07c.617-.017 1.736.41 3.963 1.378z"
          fill="#667085"/>
</svg>