<svg width="96" height="24" fill="none" xmlns="http://www.w3.org/2000/svg">
    <path d="M26.92 20.068V7.255h2.741v12.813H26.92zM41.29 20.401a5.987 5.987 0 0 1-3.228-.91 6.82 6.82 0 0 1-2.32-2.434c-.572-1.025-.858-2.157-.858-3.396 0-.94.167-1.815.5-2.626.333-.82.79-1.538 1.371-2.153a6.43 6.43 0 0 1 2.05-1.46 5.981 5.981 0 0 1 2.486-.526c.982 0 1.883.205 2.703.615a6.26 6.26 0 0 1 2.114 1.692 7.033 7.033 0 0 1 1.282 2.473c.273.922.35 1.9.23 2.934H37.82a4.09 4.09 0 0 0 .64 1.563c.316.453.713.811 1.192 1.076a3.48 3.48 0 0 0 1.64.41 3.185 3.185 0 0 0 1.73-.461 3.871 3.871 0 0 0 1.28-1.32l2.781.654a6.753 6.753 0 0 1-2.319 2.793 5.948 5.948 0 0 1-3.472 1.076zm-3.561-7.867h7.124a3.704 3.704 0 0 0-.64-1.627 3.768 3.768 0 0 0-1.27-1.166 3.252 3.252 0 0 0-1.652-.436c-.59 0-1.136.145-1.64.436a3.684 3.684 0 0 0-1.256 1.153 4.213 4.213 0 0 0-.666 1.64zM59.634 7.255h2.742v12.813h-2.742l-.128-1.82a4.45 4.45 0 0 1-1.499 1.564c-.623.392-1.362.589-2.216.589a6.773 6.773 0 0 1-2.666-.525 7.006 7.006 0 0 1-2.19-1.487 6.975 6.975 0 0 1-1.461-2.178 6.773 6.773 0 0 1-.526-2.665c0-.922.171-1.785.513-2.588a6.671 6.671 0 0 1 3.523-3.536 6.37 6.37 0 0 1 2.576-.526c.914 0 1.721.21 2.421.628a5.64 5.64 0 0 1 1.769 1.589l-.116-1.858zm-3.92 10.507c.743 0 1.392-.184 1.947-.551a3.71 3.71 0 0 0 1.294-1.487 4.6 4.6 0 0 0 .462-2.063c0-.768-.159-1.46-.475-2.075a3.618 3.618 0 0 0-1.294-1.474c-.555-.367-1.2-.55-1.934-.55-.727 0-1.393.183-2 .55a4.094 4.094 0 0 0-1.96 3.55c0 .76.18 1.452.539 2.075a4.27 4.27 0 0 0 1.447 1.474 3.74 3.74 0 0 0 1.974.55zM65.032 20.068V.848h2.742v19.22h-2.742zM76.3 20.401a5.987 5.987 0 0 1-3.228-.91 6.821 6.821 0 0 1-2.32-2.434c-.572-1.025-.858-2.157-.858-3.396 0-.94.167-1.815.5-2.626.333-.82.79-1.538 1.371-2.153a6.431 6.431 0 0 1 2.05-1.46 5.981 5.981 0 0 1 2.486-.526c1.178 0 2.25.304 3.216.91a6.649 6.649 0 0 1 2.319 2.447c.58 1.025.871 2.161.871 3.408 0 .931-.166 1.803-.5 2.614a6.943 6.943 0 0 1-1.383 2.153 6.378 6.378 0 0 1-2.038 1.448 5.923 5.923 0 0 1-2.485.525zm0-2.742c.693 0 1.316-.184 1.871-.55.556-.368.991-.855 1.307-1.462a4.142 4.142 0 0 0 .487-1.986c0-.734-.166-1.405-.5-2.011a3.83 3.83 0 0 0-1.32-1.46 3.272 3.272 0 0 0-1.844-.552c-.692 0-1.316.184-1.87.551a3.932 3.932 0 0 0-1.32 1.474 4.259 4.259 0 0 0-.475 1.998c0 .752.167 1.431.5 2.038a3.988 3.988 0 0 0 1.333 1.435c.555.35 1.166.525 1.832.525zM93.055 16.403l2.447 1.32a6.498 6.498 0 0 1-2.216 1.948 5.927 5.927 0 0 1-2.896.73 5.987 5.987 0 0 1-3.229-.91 6.82 6.82 0 0 1-2.32-2.434c-.571-1.025-.858-2.157-.858-3.396 0-.94.167-1.815.5-2.626.333-.82.79-1.538 1.371-2.153a6.43 6.43 0 0 1 2.05-1.46 5.98 5.98 0 0 1 2.486-.526c1.042 0 2.007.244 2.895.73a6.447 6.447 0 0 1 2.217 1.961l-2.447 1.32c-.35-.41-.76-.722-1.23-.936a3.27 3.27 0 0 0-1.435-.333 3.26 3.26 0 0 0-1.87.564 3.931 3.931 0 0 0-1.32 1.473 4.231 4.231 0 0 0-.475 1.986c0 .718.163 1.38.487 1.986a3.959 3.959 0 0 0 1.32 1.461c.555.367 1.175.551 1.858.551a3.25 3.25 0 0 0 1.473-.346c.462-.23.859-.534 1.192-.91z"
          fill="#101828"/>
    <path d="m29.628 10.055 2.006-3.16h3.22l-2 3.16h-3.226z" fill="#101828"/>
    <path d="M13.894 24H10.67l1.017-1.604 2.758-4.349h3.218L13.894 24z" fill="#2F56FF"/>
    <path d="M17.402 13.296a7.26 7.26 0 0 0-1.988-8.817l-.177-.148a7.282 7.282 0 0 0-4.568-1.615A7.294 7.294 0 0 0 6.1 4.331l-.184.148a7.259 7.259 0 0 0-1.568 9.55L10.67 24h-3.22l-5.395-8.509a9.985 9.985 0 0 1 2.16-13.124l.183-.148a9.981 9.981 0 0 1 12.55 0l.177.148a9.979 9.979 0 0 1 3.201 10.929h-2.923z"
          fill="#2F56FF"/>
    <path d="M19.924 14.313a9.387 9.387 0 0 1-.64 1.172l-.976 1.544H11.9l-.615-.97 1.112-1.746.645-1.017.799-1.26a3.544 3.544 0 0 0-.77-4.651l-.177-.142a3.533 3.533 0 0 0-2.225-.793c-.786 0-1.573.266-2.224.793l-.178.142a3.543 3.543 0 0 0-.763 4.65L8.58 13.74l3.692 5.834-1.604 2.526-2.29-3.615-3.17-5a6.256 6.256 0 0 1 1.354-8.213l.178-.148a6.28 6.28 0 0 1 3.928-1.39 6.28 6.28 0 0 1 3.935 1.396l.178.142a6.243 6.243 0 0 1 1.349 8.213l-.527.829h4.32z"
          fill="#20BBF7"/>
</svg>