<svg version="1.0" xmlns="http://www.w3.org/2000/svg" width="933.333" height="933.333" viewBox="0 0 700 700"><path d="M0 357.5V700h700V15H0v342.5zM385.5 109c50.5 10.1 96.3 40.9 125.4 84.4 15.2 22.8 25.6 50.1 29.7 78.6 1.3 9 1.5 15.9 1.1 31.5-.6 20.7-2.1 31.3-6.8 47.2l-2.2 7.3H477l1.8-3.8c7.9-15.5 13-43.3 11.8-63-2.1-35.4-15.5-65.2-40.6-90.2-21.7-21.7-44.1-34.3-72.3-40.5-11.4-2.6-37.3-3.1-49.8-1-29.9 4.9-56 18.7-78.9 41.5-23.7 23.6-37 52.2-39.9 85.8-2.3 26.2 4 55.6 16.7 77.9 2.1 3.7 29.6 47.5 61.2 97.3 31.5 49.8 58.3 92.2 59.7 94.3l2.3 3.7h-60.7l-52.4-82.3c-28.7-45.2-54.8-87.2-58-93.2-13.4-25.8-19.6-50-20.6-80-1.1-34.5 5-62.3 20.3-92.5 9.1-17.8 17.7-30.1 31.2-44.1 32.1-33.5 70.2-53.8 113.5-60.4 14.4-2.2 49.1-1.4 63.2 1.5zm-11.8 70c23.2 4.8 44.6 16.6 62.9 34.7 31.3 30.8 43 77.6 29.8 119.3-3.5 11.3-7.9 20.3-15.8 32.8-3.6 5.6-6.6 10.5-6.6 10.7 0 .3 18.2.5 40.5.5s40.5.2 40.5.5c0 1.6-6.7 13.3-17.9 31.2L494.5 429H373.1l-3.5-5.5c-2-3-4.6-7.2-6-9.3l-2.4-3.9 23.5-36.9c27.6-43.5 29.4-46.6 32.5-56.4 1.8-6 2.3-9.8 2.3-19 0-10-.4-12.7-2.9-20.4-7.4-22.5-27.8-41.3-51-47.1-8.6-2.1-23.9-2.1-32.1 0-19 4.9-38.4 20.6-46.9 38-4.7 9.3-6.6 18-6.6 29.5 0 10.5 1.7 18.9 5.3 27.1 1.3 3 22.8 37.8 47.9 77.4 25 39.6 45.8 72.6 46.2 73.3.7 1.2-28.1 48.2-29.6 48.2-1.2 0-105.3-164.6-110-174-9.1-18.3-12.3-34-11.5-57 .6-16.2 2-23.9 7-37 13.6-36.1 46.3-65.5 84.1-75.5 17.8-4.8 36.2-5.3 54.3-1.5zm107.6 270.4c-.4.7-16.5 26.1-35.8 56.5l-35 55.1h-30.3c-24 0-30.2-.3-29.6-1.3.4-.6 16.5-26.1 35.7-56.5l34.9-55.2h30.5c25.3 0 30.3.2 29.6 1.4z"/></svg>