<svg width="18" height="17" fill="none" xmlns="http://www.w3.org/2000/svg">
    <path d="M.33 16.701V.951h8.55v3.6h8.793v12.15H.331zm1.35-1.35h2.25v-2.25H1.68v2.25zm0-3.6h2.25v-2.25H1.68v2.25zm0-3.6h2.25v-2.25H1.68v2.25zm0-3.6h2.25v-2.25H1.68v2.25zm3.6 10.8h2.25v-2.25H5.28v2.25zm0-3.6h2.25v-2.25H5.28v2.25zm0-3.6h2.25v-2.25H5.28v2.25zm0-3.6h2.25v-2.25H5.28v2.25zm3.6 10.8h7.443v-9.45H8.881v2.25h1.973v1.35H8.88v2.25h1.973v1.35H8.88v2.25zm3.947-5.85v-1.35h1.35v1.35h-1.35zm0 3.6v-1.35h1.35v1.35h-1.35z"
          fill="#667085"/>
</svg>