<svg width="80" height="80" fill="none" xmlns="http://www.w3.org/2000/svg">
    <path d="M58.9 18.59v-5.25H21.1v5.25c0 8.4 5.88 15.33 13.65 17.22.63.21 1.05.84 1.05 1.47v2.52c0 .63-.42 1.26-1.05 1.26-7.77 1.89-13.65 8.82-13.65 17.22v5.67h37.8v-5.67c0-8.4-5.88-15.33-13.65-17.22-.63-.21-1.05-.63-1.05-1.26v-2.52c0-.63.42-1.26 1.05-1.26 7.77-2.1 13.65-9.03 13.65-17.43z"
          fill="#9FD6FF"/>
    <path d="M58.9 18.59v-5.25H21.1v5.25c0 8.4 5.88 15.33 13.65 17.22.63.21 1.05.84 1.05 1.47v2.52c0 .63-.42 1.26-1.05 1.26-7.77 1.89-13.65 8.82-13.65 17.22v5.67h37.8v-5.67c0-8.4-5.88-15.33-13.65-17.22-.63-.21-1.05-.63-1.05-1.26v-2.52c0-.63.42-1.26 1.05-1.26 7.77-2.1 13.65-9.03 13.65-17.43z"
          fill="url(#a)"/>
    <path d="M58.9 18.59v-5.25H21.1v5.25c0 8.4 5.88 15.33 13.65 17.22.63.21 1.05.84 1.05 1.47v2.52c0 .63-.42 1.26-1.05 1.26-7.77 1.89-13.65 8.82-13.65 17.22v5.67h37.8v-5.67c0-8.4-5.88-15.33-13.65-17.22-.63-.21-1.05-.63-1.05-1.26v-2.52c0-.63.42-1.26 1.05-1.26 7.77-2.1 13.65-9.03 13.65-17.43z"
          fill="url(#b)"/>
    <path d="M58.9 13.55H21.1c-1.26 0-2.1-.84-2.1-2.1 0-1.26.84-2.1 2.1-2.1h37.8c1.26 0 2.1.84 2.1 2.1 0 1.26-.84 2.1-2.1 2.1z"
          fill="url(#c)"/>
    <path d="M58.9 13.55H21.1c-1.26 0-2.1-.84-2.1-2.1 0-1.26.84-2.1 2.1-2.1h37.8c1.26 0 2.1.84 2.1 2.1 0 1.26-.84 2.1-2.1 2.1z"
          fill="url(#d)"/>
    <path d="M58.9 13.55H21.1c-1.26 0-2.1-.84-2.1-2.1 0-1.26.84-2.1 2.1-2.1h37.8c1.26 0 2.1.84 2.1 2.1 0 1.26-.84 2.1-2.1 2.1z"
          fill="url(#e)"/>
    <path d="M58.9 68.15H21.1c-1.26 0-2.1-.84-2.1-2.1 0-1.26.84-2.1 2.1-2.1h37.8c1.26 0 2.1.84 2.1 2.1 0 1.26-.84 2.1-2.1 2.1z"
          fill="url(#f)"/>
    <path d="M58.9 68.15H21.1c-1.26 0-2.1-.84-2.1-2.1 0-1.26.84-2.1 2.1-2.1h37.8c1.26 0 2.1.84 2.1 2.1 0 1.26-.84 2.1-2.1 2.1z"
          fill="url(#g)"/>
    <path d="M58.9 68.15H21.1c-1.26 0-2.1-.84-2.1-2.1 0-1.26.84-2.1 2.1-2.1h37.8c1.26 0 2.1.84 2.1 2.1 0 1.26-.84 2.1-2.1 2.1z"
          fill="url(#h)"/>
    <path d="M53.44 61.43c-1.05 0-1.89-.84-1.89-1.89-.42-3.99-2.52-9.45-7.56-11.34-1.05-.42-1.47-1.47-1.05-2.52.42-1.05 1.47-1.47 2.52-1.05 2.94 1.05 5.46 3.15 7.14 6.09 1.68 2.52 2.52 5.46 2.73 8.82.21.84-.63 1.89-1.89 1.89z"
          fill="url(#i)"/>
    <path d="M42.1 51.77V36.23c0-1.05.63-1.89 1.68-2.1 6.72-1.47 11.76-6.93 12.81-13.86.21-1.26-.84-2.52-2.1-2.52H25.51c-1.26 0-2.31 1.26-2.1 2.52 1.05 6.93 6.09 12.39 12.81 13.86 1.05.21 1.68 1.05 1.68 2.1v15.54c0 1.05-.63 1.89-1.68 2.1-3.99.84-7.35 3.15-9.66 6.3-1.26 1.68 0 3.78 1.89 3.78h23.1c1.89 0 3.15-2.1 1.89-3.57-2.31-3.15-5.88-5.46-9.66-6.3-1.05-.42-1.68-1.26-1.68-2.31z"
          fill="url(#j)"/>
    <path d="M42.1 51.77V36.23c0-1.05.63-1.89 1.68-2.1 6.72-1.47 11.76-6.93 12.81-13.86.21-1.26-.84-2.52-2.1-2.52H25.51c-1.26 0-2.31 1.26-2.1 2.52 1.05 6.93 6.09 12.39 12.81 13.86 1.05.21 1.68 1.05 1.68 2.1v15.54c0 1.05-.63 1.89-1.68 2.1-3.99.84-7.35 3.15-9.66 6.3-1.26 1.68 0 3.78 1.89 3.78h23.1c1.89 0 3.15-2.1 1.89-3.57-2.31-3.15-5.88-5.46-9.66-6.3-1.05-.42-1.68-1.26-1.68-2.31z"
          fill="url(#k)"/>
    <path d="M42.1 51.77V36.23c0-1.05.63-1.89 1.68-2.1 6.72-1.47 11.76-6.93 12.81-13.86.21-1.26-.84-2.52-2.1-2.52H25.51c-1.26 0-2.31 1.26-2.1 2.52 1.05 6.93 6.09 12.39 12.81 13.86 1.05.21 1.68 1.05 1.68 2.1v15.54c0 1.05-.63 1.89-1.68 2.1-3.99.84-7.35 3.15-9.66 6.3-1.26 1.68 0 3.78 1.89 3.78h23.1c1.89 0 3.15-2.1 1.89-3.57-2.31-3.15-5.88-5.46-9.66-6.3-1.05-.42-1.68-1.26-1.68-2.31z"
          fill="url(#l)"/>
    <path d="M42.1 51.77V36.23c0-1.05.63-1.89 1.68-2.1 6.72-1.47 11.76-6.93 12.81-13.86.21-1.26-.84-2.52-2.1-2.52H25.51c-1.26 0-2.31 1.26-2.1 2.52 1.05 6.93 6.09 12.39 12.81 13.86 1.05.21 1.68 1.05 1.68 2.1v15.54c0 1.05-.63 1.89-1.68 2.1-3.99.84-7.35 3.15-9.66 6.3-1.26 1.68 0 3.78 1.89 3.78h23.1c1.89 0 3.15-2.1 1.89-3.57-2.31-3.15-5.88-5.46-9.66-6.3-1.05-.42-1.68-1.26-1.68-2.31z"
          fill="url(#m)"/>
    <path d="M42.1 51.77V36.23c0-1.05.63-1.89 1.68-2.1 6.72-1.47 11.76-6.93 12.81-13.86.21-1.26-.84-2.52-2.1-2.52H25.51c-1.26 0-2.31 1.26-2.1 2.52 1.05 6.93 6.09 12.39 12.81 13.86 1.05.21 1.68 1.05 1.68 2.1v15.54c0 1.05-.63 1.89-1.68 2.1-3.99.84-7.35 3.15-9.66 6.3-1.26 1.68 0 3.78 1.89 3.78h23.1c1.89 0 3.15-2.1 1.89-3.57-2.31-3.15-5.88-5.46-9.66-6.3-1.05-.42-1.68-1.26-1.68-2.31z"
          fill="url(#n)"/>
    <path d="M42.1 51.77V36.23c0-1.05.63-1.89 1.68-2.1 6.72-1.47 11.76-6.93 12.81-13.86.21-1.26-.84-2.52-2.1-2.52H25.51c-1.26 0-2.31 1.26-2.1 2.52 1.05 6.93 6.09 12.39 12.81 13.86 1.05.21 1.68 1.05 1.68 2.1v15.54c0 1.05-.63 1.89-1.68 2.1-3.99.84-7.35 3.15-9.66 6.3-1.26 1.68 0 3.78 1.89 3.78h23.1c1.89 0 3.15-2.1 1.89-3.57-2.31-3.15-5.88-5.46-9.66-6.3-1.05-.42-1.68-1.26-1.68-2.31z"
          fill="url(#o)"/>
    <path d="M42.1 51.77V36.23c0-1.05.63-1.89 1.68-2.1 6.72-1.47 11.76-6.93 12.81-13.86.21-1.26-.84-2.52-2.1-2.52H25.51c-1.26 0-2.31 1.26-2.1 2.52 1.05 6.93 6.09 12.39 12.81 13.86 1.05.21 1.68 1.05 1.68 2.1v15.54c0 1.05-.63 1.89-1.68 2.1-3.99.84-7.35 3.15-9.66 6.3-1.26 1.68 0 3.78 1.89 3.78h23.1c1.89 0 3.15-2.1 1.89-3.57-2.31-3.15-5.88-5.46-9.66-6.3-1.05-.42-1.68-1.26-1.68-2.31z"
          fill="url(#p)"/>
    <path d="M42.1 51.77V36.23c0-1.05.63-1.89 1.68-2.1 6.72-1.47 11.76-6.93 12.81-13.86.21-1.26-.84-2.52-2.1-2.52H25.51c-1.26 0-2.31 1.26-2.1 2.52 1.05 6.93 6.09 12.39 12.81 13.86 1.05.21 1.68 1.05 1.68 2.1v15.54c0 1.05-.63 1.89-1.68 2.1-3.99.84-7.35 3.15-9.66 6.3-1.26 1.68 0 3.78 1.89 3.78h23.1c1.89 0 3.15-2.1 1.89-3.57-2.31-3.15-5.88-5.46-9.66-6.3-1.05-.42-1.68-1.26-1.68-2.31z"
          fill="url(#q)"/>
    <path d="M42.1 51.77V36.23c0-1.05.63-1.89 1.68-2.1 6.72-1.47 11.76-6.93 12.81-13.86.21-1.26-.84-2.52-2.1-2.52H25.51c-1.26 0-2.31 1.26-2.1 2.52 1.05 6.93 6.09 12.39 12.81 13.86 1.05.21 1.68 1.05 1.68 2.1v15.54c0 1.05-.63 1.89-1.68 2.1-3.99.84-7.35 3.15-9.66 6.3-1.26 1.68 0 3.78 1.89 3.78h23.1c1.89 0 3.15-2.1 1.89-3.57-2.31-3.15-5.88-5.46-9.66-6.3-1.05-.42-1.68-1.26-1.68-2.31z"
          fill="url(#r)"/>
    <path d="M42.1 51.77V36.23c0-1.05.63-1.89 1.68-2.1 6.72-1.47 11.76-6.93 12.81-13.86.21-1.26-.84-2.52-2.1-2.52H25.51c-1.26 0-2.31 1.26-2.1 2.52 1.05 6.93 6.09 12.39 12.81 13.86 1.05.21 1.68 1.05 1.68 2.1v15.54c0 1.05-.63 1.89-1.68 2.1-3.99.84-7.35 3.15-9.66 6.3-1.26 1.68 0 3.78 1.89 3.78h23.1c1.89 0 3.15-2.1 1.89-3.57-2.31-3.15-5.88-5.46-9.66-6.3-1.05-.42-1.68-1.26-1.68-2.31z"
          fill="url(#s)"/>
    <path d="M42.1 51.77V36.23c0-1.05.63-1.89 1.68-2.1 6.72-1.47 11.76-6.93 12.81-13.86.21-1.26-.84-2.52-2.1-2.52H25.51c-1.26 0-2.31 1.26-2.1 2.52 1.05 6.93 6.09 12.39 12.81 13.86 1.05.21 1.68 1.05 1.68 2.1v15.54c0 1.05-.63 1.89-1.68 2.1-3.99.84-7.35 3.15-9.66 6.3-1.26 1.68 0 3.78 1.89 3.78h23.1c1.89 0 3.15-2.1 1.89-3.57-2.31-3.15-5.88-5.46-9.66-6.3-1.05-.42-1.68-1.26-1.68-2.31z"
          fill="url(#t)"/>
    <path d="M42.1 51.77V36.23c0-1.05.63-1.89 1.68-2.1 6.72-1.47 11.76-6.93 12.81-13.86.21-1.26-.84-2.52-2.1-2.52H25.51c-1.26 0-2.31 1.26-2.1 2.52 1.05 6.93 6.09 12.39 12.81 13.86 1.05.21 1.68 1.05 1.68 2.1v15.54c0 1.05-.63 1.89-1.68 2.1-3.99.84-7.35 3.15-9.66 6.3-1.26 1.68 0 3.78 1.89 3.78h23.1c1.89 0 3.15-2.1 1.89-3.57-2.31-3.15-5.88-5.46-9.66-6.3-1.05-.42-1.68-1.26-1.68-2.31z"
          fill="url(#u)"/>
    <path d="M42.1 51.77V36.23c0-1.05.63-1.89 1.68-2.1 6.72-1.47 11.76-6.93 12.81-13.86.21-1.26-.84-2.52-2.1-2.52H25.51c-1.26 0-2.31 1.26-2.1 2.52 1.05 6.93 6.09 12.39 12.81 13.86 1.05.21 1.68 1.05 1.68 2.1v15.54c0 1.05-.63 1.89-1.68 2.1-3.99.84-7.35 3.15-9.66 6.3-1.26 1.68 0 3.78 1.89 3.78h23.1c1.89 0 3.15-2.1 1.89-3.57-2.31-3.15-5.88-5.46-9.66-6.3-1.05-.42-1.68-1.26-1.68-2.31z"
          fill="url(#v)"/>
    <path d="M42.1 51.77V36.23c0-1.05.63-1.89 1.68-2.1 6.72-1.47 11.76-6.93 12.81-13.86.21-1.26-.84-2.52-2.1-2.52H25.51c-1.26 0-2.31 1.26-2.1 2.52 1.05 6.93 6.09 12.39 12.81 13.86 1.05.21 1.68 1.05 1.68 2.1v15.54c0 1.05-.63 1.89-1.68 2.1-3.99.84-7.35 3.15-9.66 6.3-1.26 1.68 0 3.78 1.89 3.78h23.1c1.89 0 3.15-2.1 1.89-3.57-2.31-3.15-5.88-5.46-9.66-6.3-1.05-.42-1.68-1.26-1.68-2.31z"
          fill="url(#w)"/>
    <path d="M42.1 51.77V36.23c0-1.05.63-1.89 1.68-2.1 6.72-1.47 11.76-6.93 12.81-13.86.21-1.26-.84-2.52-2.1-2.52H25.51c-1.26 0-2.31 1.26-2.1 2.52 1.05 6.93 6.09 12.39 12.81 13.86 1.05.21 1.68 1.05 1.68 2.1v15.54c0 1.05-.63 1.89-1.68 2.1-3.99.84-7.35 3.15-9.66 6.3-1.26 1.68 0 3.78 1.89 3.78h23.1c1.89 0 3.15-2.1 1.89-3.57-2.31-3.15-5.88-5.46-9.66-6.3-1.05-.42-1.68-1.26-1.68-2.31z"
          fill="url(#x)"/>
    <path d="M42.1 51.77V36.23c0-1.05.63-1.89 1.68-2.1 6.72-1.47 11.76-6.93 12.81-13.86.21-1.26-.84-2.52-2.1-2.52H25.51c-1.26 0-2.31 1.26-2.1 2.52 1.05 6.93 6.09 12.39 12.81 13.86 1.05.21 1.68 1.05 1.68 2.1v15.54c0 1.05-.63 1.89-1.68 2.1-3.99.84-7.35 3.15-9.66 6.3-1.26 1.68 0 3.78 1.89 3.78h23.1c1.89 0 3.15-2.1 1.89-3.57-2.31-3.15-5.88-5.46-9.66-6.3-1.05-.42-1.68-1.26-1.68-2.31z"
          fill="url(#y)"/>
    <path d="M42.1 51.77V36.23c0-1.05.63-1.89 1.68-2.1 6.72-1.47 11.76-6.93 12.81-13.86.21-1.26-.84-2.52-2.1-2.52H25.51c-1.26 0-2.31 1.26-2.1 2.52 1.05 6.93 6.09 12.39 12.81 13.86 1.05.21 1.68 1.05 1.68 2.1v15.54c0 1.05-.63 1.89-1.68 2.1-3.99.84-7.35 3.15-9.66 6.3-1.26 1.68 0 3.78 1.89 3.78h23.1c1.89 0 3.15-2.1 1.89-3.57-2.31-3.15-5.88-5.46-9.66-6.3-1.05-.42-1.68-1.26-1.68-2.31z"
          fill="url(#z)"/>
    <path d="M42.1 51.77V36.23c0-1.05.63-1.89 1.68-2.1 6.72-1.47 11.76-6.93 12.81-13.86.21-1.26-.84-2.52-2.1-2.52H25.51c-1.26 0-2.31 1.26-2.1 2.52 1.05 6.93 6.09 12.39 12.81 13.86 1.05.21 1.68 1.05 1.68 2.1v15.54c0 1.05-.63 1.89-1.68 2.1-3.99.84-7.35 3.15-9.66 6.3-1.26 1.68 0 3.78 1.89 3.78h23.1c1.89 0 3.15-2.1 1.89-3.57-2.31-3.15-5.88-5.46-9.66-6.3-1.05-.42-1.68-1.26-1.68-2.31z"
          fill="url(#A)"/>
    <path d="M53.44 15.44c-1.05 0-1.89.84-1.89 1.89-.42 3.99-2.52 9.45-7.56 11.34-1.05.42-1.47 1.47-1.05 2.52.42 1.05 1.47 1.47 2.52 1.05 2.94-1.05 5.46-3.15 7.14-6.09 1.68-2.52 2.52-5.46 2.73-8.82.21-.84-.63-1.68-1.89-1.89z"
          fill="url(#B)"/>
    <defs>
        <radialGradient id="o" cx="0" cy="0" r="1" gradientUnits="userSpaceOnUse"
                        gradientTransform="rotate(132.917 24.736 20.532) scale(24.4031 25.8018)">
            <stop stop-color="#FFD968"/>
            <stop offset="1" stop-color="#FFD968" stop-opacity="0"/>
        </radialGradient>
        <radialGradient id="a" cx="0" cy="0" r="1" gradientUnits="userSpaceOnUse"
                        gradientTransform="matrix(-9.30835 10.07007 -8.2158 -7.59435 49.308 52.403)">
            <stop stop-color="#C4F4FF"/>
            <stop offset="1" stop-color="#C4F4FF" stop-opacity="0"/>
        </radialGradient>
        <radialGradient id="c" cx="0" cy="0" r="1" gradientUnits="userSpaceOnUse"
                        gradientTransform="matrix(0 2.1 -26.5125 0 49.581 11.45)">
            <stop stop-color="#CDCFCF"/>
            <stop offset="1" stop-color="#A9A9A9"/>
        </radialGradient>
        <radialGradient id="A" cx="0" cy="0" r="1" gradientUnits="userSpaceOnUse"
                        gradientTransform="matrix(2.1 0 0 14.5688 37.9 42.95)">
            <stop stop-color="#BF8F5E"/>
            <stop offset=".878" stop-color="#BF8F5E" stop-opacity="0"/>
        </radialGradient>
        <radialGradient id="z" cx="0" cy="0" r="1" gradientUnits="userSpaceOnUse"
                        gradientTransform="matrix(0 -2.1 6.00469 0 40 53.45)">
            <stop stop-color="#F2BE71"/>
            <stop offset=".289" stop-color="#F2BE71"/>
            <stop offset=".828" stop-color="#F2BE71" stop-opacity="0"/>
        </radialGradient>
        <radialGradient id="f" cx="0" cy="0" r="1" gradientUnits="userSpaceOnUse"
                        gradientTransform="matrix(0 2.3625 -29.8266 0 49.581 65.294)">
            <stop stop-color="#CDCFCF"/>
            <stop offset="1" stop-color="#A9A9A9"/>
        </radialGradient>
        <radialGradient id="y" cx="0" cy="0" r="1" gradientUnits="userSpaceOnUse"
                        gradientTransform="matrix(0 15.75 -17.5673 0 40 68.15)">
            <stop offset=".892" stop-color="#BD8A57" stop-opacity="0"/>
            <stop offset=".933" stop-color="#BD8A57"/>
            <stop offset=".946" stop-color="#BD8A57" stop-opacity="0"/>
        </radialGradient>
        <radialGradient id="w" cx="0" cy="0" r="1" gradientUnits="userSpaceOnUse"
                        gradientTransform="matrix(0 -2.1 2.75176 0 41.05 33.5)">
            <stop stop-color="#FAD075"/>
            <stop offset=".772" stop-color="#FAD075" stop-opacity="0"/>
        </radialGradient>
        <radialGradient id="v" cx="0" cy="0" r="1" gradientUnits="userSpaceOnUse"
                        gradientTransform="matrix(0 2.1 -2.06272 0 41.05 54.5)">
            <stop stop-color="#FAD075"/>
            <stop offset=".485" stop-color="#FAD075" stop-opacity="0"/>
        </radialGradient>
        <radialGradient id="j" cx="0" cy="0" r="1" gradientUnits="userSpaceOnUse"
                        gradientTransform="matrix(0 24.1527 -23.8059 0 47.919 55.246)">
            <stop offset=".088" stop-color="#FFD68C"/>
            <stop offset="1" stop-color="#E69E45"/>
        </radialGradient>
        <radialGradient id="k" cx="0" cy="0" r="1" gradientUnits="userSpaceOnUse"
                        gradientTransform="matrix(-11.03474 14.13348 -11.59314 -9.05137 51.035 16.724)">
            <stop stop-color="#F3C169"/>
            <stop offset="1" stop-color="#F3C169" stop-opacity="0"/>
        </radialGradient>
        <radialGradient id="l" cx="0" cy="0" r="1" gradientUnits="userSpaceOnUse"
                        gradientTransform="rotate(164.385 25.914 28.152) scale(38.0462 66.2907)">
            <stop offset=".667" stop-color="#B7845C" stop-opacity="0"/>
            <stop offset="1" stop-color="#B7845C"/>
        </radialGradient>
        <radialGradient id="m" cx="0" cy="0" r="1" gradientUnits="userSpaceOnUse"
                        gradientTransform="rotate(-24.543 71.106 -53.327) scale(12.5597 13.4902)">
            <stop stop-color="#B69E6D"/>
            <stop offset="1" stop-color="#B69E6D" stop-opacity="0"/>
        </radialGradient>
        <radialGradient id="n" cx="0" cy="0" r="1" gradientUnits="userSpaceOnUse"
                        gradientTransform="matrix(-23.8421 0 0 -2.42678 50.032 20.177)">
            <stop stop-color="#FFE379"/>
            <stop offset=".406" stop-color="#FFCB56"/>
            <stop offset="1" stop-color="#FFCB56" stop-opacity="0"/>
        </radialGradient>
        <radialGradient id="b" cx="0" cy="0" r="1" gradientUnits="userSpaceOnUse"
                        gradientTransform="matrix(0 11.1201 -23.1241 0 51.144 15.81)">
            <stop stop-color="#C4F4FF"/>
            <stop offset="1" stop-color="#C4F4FF" stop-opacity="0"/>
        </radialGradient>
        <radialGradient id="u" cx="0" cy="0" r="1" gradientUnits="userSpaceOnUse"
                        gradientTransform="matrix(0 10.5 -1.27091 0 41.05 41.9)">
            <stop stop-color="#FAD075"/>
            <stop offset="1" stop-color="#FAD075" stop-opacity="0"/>
        </radialGradient>
        <radialGradient id="q" cx="0" cy="0" r="1" gradientUnits="userSpaceOnUse"
                        gradientTransform="matrix(0 1.35677 -15.6783 0 46.645 61.554)">
            <stop stop-color="#FFD894"/>
            <stop offset="1" stop-color="#FFD894" stop-opacity="0"/>
        </radialGradient>
        <radialGradient id="t" cx="0" cy="0" r="1" gradientUnits="userSpaceOnUse"
                        gradientTransform="rotate(-154.746 27.689 21.69) scale(3.84546 1.42917)">
            <stop stop-color="#FFD87F"/>
            <stop offset="1" stop-color="#FFD87F" stop-opacity="0"/>
        </radialGradient>
        <linearGradient id="s" x1="40" y1="64.015" x2="40" y2="63.654" gradientUnits="userSpaceOnUse">
            <stop stop-color="#54453F"/>
            <stop offset="1" stop-color="#54453F" stop-opacity="0"/>
        </linearGradient>
        <linearGradient id="r" x1="40" y1="64.418" x2="40" y2="61.328" gradientUnits="userSpaceOnUse">
            <stop stop-color="#C9895B"/>
            <stop offset="1" stop-color="#C9895B" stop-opacity="0"/>
        </linearGradient>
        <linearGradient id="p" x1="40" y1="17.421" x2="40" y2="18.815" gradientUnits="userSpaceOnUse">
            <stop stop-color="#9E8563"/>
            <stop offset="1" stop-color="#9E8563" stop-opacity="0"/>
        </linearGradient>
        <linearGradient id="i" x1="48.269" y1="47.576" x2="49.975" y2="61.43" gradientUnits="userSpaceOnUse">
            <stop stop-color="#fff"/>
            <stop offset=".822" stop-color="#fff" stop-opacity="0"/>
        </linearGradient>
        <linearGradient id="h" x1="40" y1="68.772" x2="40" y2="66.738" gradientUnits="userSpaceOnUse">
            <stop stop-color="#7CA0B3"/>
            <stop offset="1" stop-color="#7CA0B3" stop-opacity="0"/>
        </linearGradient>
        <linearGradient id="x" x1="40" y1="60.303" x2="40" y2="63.95" gradientUnits="userSpaceOnUse">
            <stop offset=".77" stop-color="#DAAB6D" stop-opacity="0"/>
            <stop offset=".991" stop-color="#B78A51"/>
        </linearGradient>
        <linearGradient id="g" x1="14.669" y1="66.607" x2="40" y2="66.607" gradientUnits="userSpaceOnUse">
            <stop stop-color="#707477"/>
            <stop offset="1" stop-color="#707477" stop-opacity="0"/>
        </linearGradient>
        <linearGradient id="e" x1="40" y1="15.288" x2="40" y2="12.532" gradientUnits="userSpaceOnUse">
            <stop stop-color="#707477"/>
            <stop offset="1" stop-color="#707477" stop-opacity="0"/>
        </linearGradient>
        <linearGradient id="d" x1="14.669" y1="12.007" x2="40" y2="12.007" gradientUnits="userSpaceOnUse">
            <stop stop-color="#707477"/>
            <stop offset="1" stop-color="#707477" stop-opacity="0"/>
        </linearGradient>
        <linearGradient id="B" x1="54.569" y1="16.338" x2="46.3" y2="31.563" gradientUnits="userSpaceOnUse">
            <stop stop-color="#fff"/>
            <stop offset=".822" stop-color="#fff" stop-opacity="0"/>
        </linearGradient>
    </defs>
</svg>